<?xml version="1.0" encoding="UTF-8"?>
<svg width="401px" height="65px" viewBox="0 0 401 65" version="1.1" xmlns="http://www.w3.org/2000/svg" xmlns:xlink="http://www.w3.org/1999/xlink">
    <title>logo-white</title>
    <g id="Page-1" stroke="none" stroke-width="1" fill="none" fill-rule="evenodd">
        <g id="logo-white" transform="translate(-52.000000, -72.000000)">
            <g transform="translate(52.000000, 72.000000)">
                <path d="M50.184,32.145 C50.184,29.031 49.781,26.234 48.98,23.742 C48.18,21.25 47.027,19.137 45.523,17.41 C44.02,15.684 42.176,14.359 40,13.434 C37.824,12.512 35.344,12.051 32.566,12.051 C29.762,12.051 27.258,12.512 25.07,13.434 C22.879,14.359 21.035,15.684 19.527,17.41 C18.023,19.137 16.871,21.25 16.066,23.742 C15.266,26.234 14.863,29.031 14.863,32.145 C14.863,35.285 15.266,38.102 16.066,40.59 C16.871,43.086 18.023,45.195 19.527,46.926 C21.035,48.652 22.879,49.969 25.07,50.875 C27.258,51.785 29.762,52.238 32.566,52.238 C35.344,52.238 37.824,51.785 40,50.875 C42.176,49.969 44.02,48.652 45.523,46.926 C47.027,45.195 48.18,43.086 48.98,40.59 C49.781,38.102 50.184,35.285 50.184,32.145 M65.051,32.145 C65.051,36.699 64.27,40.934 62.707,44.852 C61.148,48.77 58.953,52.176 56.113,55.07 C53.281,57.961 49.863,60.231 45.867,61.871 C41.871,63.516 37.437,64.336 32.566,64.336 C27.699,64.336 23.258,63.516 19.25,61.871 C15.238,60.231 11.809,57.961 8.957,55.07 C6.105,52.176 3.902,48.77 2.34,44.852 C0.781,40.934 0,36.699 0,32.145 C0,27.594 0.781,23.359 2.34,19.441 C3.902,15.524 6.105,12.125 8.957,9.242 C11.809,6.363 15.238,4.102 19.25,2.461 C23.258,0.817 27.699,0 32.566,0 C37.437,0 41.871,0.824 45.867,2.481 C49.863,4.141 53.281,6.41 56.113,9.289 C58.953,12.168 61.148,15.57 62.707,19.488 C64.27,23.402 65.051,27.625 65.051,32.145" id="Fill-18" fill="#4169E1"></path>
                <path d="M105.852,46.926 C104.371,48.652 102.555,49.969 100.414,50.879 C98.266,51.785 95.824,52.238 93.086,52.238 C90.32,52.238 87.86,51.785 85.703,50.879 C83.539,49.969 81.723,48.652 80.242,46.926 C78.754,45.195 77.621,43.086 76.828,40.59 C76.039,38.102 75.645,35.285 75.645,32.145 C75.645,29.031 76.039,26.234 76.828,23.742 C77.621,21.254 78.754,19.137 80.242,17.41 C81.723,15.684 83.539,14.359 85.703,13.434 C87.86,12.512 90.32,12.051 93.086,12.051 C95.824,12.051 98.266,12.512 100.414,13.434 C102.555,14.359 104.371,15.684 105.852,17.41 C106.57,18.246 107.203,19.168 107.754,20.184 C108.82,22.145 111.492,21.91 111.492,21.91 L123.602,21.91 C123.356,21.094 123.098,20.277 122.785,19.488 C121.246,15.57 119.082,12.168 116.289,9.289 C113.496,6.41 110.129,4.141 106.192,2.481 C102.254,0.824 97.887,0 93.086,0 C88.289,0 83.918,0.817 79.965,2.461 C76.016,4.102 72.633,6.363 69.824,9.242 C67.016,12.129 64.844,15.524 63.305,19.441 C61.766,23.359 61,27.594 61,32.145 C61,36.699 61.766,40.934 63.305,44.852 C64.844,48.77 67.016,52.176 69.824,55.07 C72.633,57.961 76.016,60.231 79.965,61.871 C83.918,63.516 88.289,64.336 93.086,64.336 C97.887,64.336 102.254,63.516 106.192,61.871 C110.129,60.231 113.496,57.961 116.289,55.07 C119.082,52.176 121.246,48.77 122.785,44.852 C123.098,44.059 123.356,43.242 123.606,42.422 L111.492,42.422 C110.379,42.422 108.594,42.531 107.485,44.41 C107.043,45.152 106.668,45.973 105.852,46.926" id="Fill-19" fill="#4169E1"></path>
                <path d="M194.184,32.145 C194.184,29.031 193.781,26.234 192.981,23.742 C192.18,21.25 191.027,19.137 189.523,17.41 C188.02,15.684 186.176,14.359 184,13.434 C181.82,12.512 179.344,12.051 176.566,12.051 C173.758,12.051 171.258,12.512 169.07,13.434 C166.875,14.359 165.031,15.684 163.527,17.41 C162.02,19.137 160.867,21.25 160.066,23.742 C159.266,26.234 158.863,29.031 158.863,32.145 C158.863,35.285 159.266,38.102 160.066,40.59 C160.867,43.086 162.02,45.195 163.527,46.926 C165.031,48.652 166.875,49.969 169.07,50.875 C171.258,51.785 173.758,52.238 176.566,52.238 C179.344,52.238 181.82,51.785 184,50.875 C186.176,49.969 188.02,48.652 189.523,46.926 C191.027,45.195 192.18,43.086 192.981,40.59 C193.781,38.102 194.184,35.285 194.184,32.145 M209.051,32.145 C209.051,36.699 208.266,40.934 206.711,44.852 C205.145,48.77 202.949,52.176 200.113,55.07 C197.277,57.961 193.863,60.231 189.863,61.871 C185.867,63.516 181.438,64.336 176.566,64.336 C171.695,64.336 167.258,63.516 163.25,61.871 C159.234,60.231 155.805,57.961 152.957,55.07 C150.102,52.176 147.899,48.77 146.34,44.852 C144.777,40.934 144,36.699 144,32.145 C144,27.594 144.777,23.359 146.34,19.441 C147.899,15.524 150.102,12.125 152.957,9.242 C155.805,6.363 159.234,4.102 163.25,2.461 C167.258,0.817 171.695,0 176.566,0 C181.438,0 185.867,0.824 189.863,2.481 C193.863,4.141 197.277,6.41 200.113,9.289 C202.949,12.168 205.145,15.57 206.711,19.488 C208.266,23.402 209.051,27.625 209.051,32.145" id="Fill-20" fill="#FFFFFF" stroke="gray"></path>
                <path d="M224.605,37.253 L224.605,52.941 L234.882,52.941 C236.816,52.941 238.394,52.695 239.621,52.207 C240.843,51.714 241.8,51.082 242.492,50.304 C243.183,49.527 243.66,48.648 243.918,47.664 C244.175,46.687 244.304,45.695 244.304,44.687 C244.304,43.535 244.156,42.496 243.855,41.574 C243.55,40.656 243.035,39.879 242.3,39.242 C241.562,38.609 240.589,38.117 239.378,37.769 C238.168,37.425 236.644,37.253 234.8,37.253 L224.605,37.253 Z M224.605,27.488 L232.211,27.488 C233.82,27.488 235.277,27.375 236.574,27.144 C237.867,26.914 238.972,26.511 239.878,25.933 C240.789,25.359 241.476,24.566 241.953,23.558 C242.429,22.546 242.664,21.281 242.664,19.753 C242.664,18.257 242.48,17.011 242.105,16.015 C241.73,15.023 241.152,14.226 240.375,13.617 C239.597,13.011 238.609,12.582 237.418,12.324 C236.218,12.062 234.8,11.933 233.16,11.933 L224.605,11.933 L224.605,27.488 Z M210,63.957 L210,1 L233.16,1 C237.511,1 241.211,1.406 244.265,2.211 C247.316,3.019 249.808,4.152 251.738,5.625 C253.668,7.093 255.074,8.879 255.953,10.984 C256.832,13.086 257.273,15.433 257.273,18.027 C257.273,19.437 257.07,20.796 256.668,22.109 C256.261,23.421 255.628,24.652 254.761,25.804 C253.898,26.953 252.793,28 251.437,28.937 C250.085,29.871 248.457,30.687 246.55,31.379 C250.703,32.386 253.769,34.023 255.761,36.285 C257.746,38.546 258.738,41.445 258.738,44.988 C258.738,47.664 258.218,50.16 257.183,52.461 C256.144,54.769 254.625,56.777 252.625,58.492 C250.625,60.207 248.152,61.546 245.214,62.507 C242.277,63.476 238.921,63.957 235.144,63.957 L210,63.957 Z" id="Fill-21" fill="#FFFFFF" stroke="gray"></path>
                <polygon id="Fill-22" fill="#FD0002" points="301.531 1 301.531 12.234 275.692 12.234 275.692 26.925 295.481 26.925 295.481 37.726 275.692 37.726 275.692 52.722 301.531 52.722 301.531 63.957 261 63.957 261 1"></polygon>
                <path d="M319.602,30.601 L325.481,30.601 C327.465,30.601 329.16,30.347 330.555,29.843 C331.953,29.339 333.098,28.64 333.992,27.75 C334.887,26.855 335.531,25.812 335.938,24.617 C336.336,23.421 336.543,22.129 336.543,20.746 C336.543,17.984 335.641,15.82 333.84,14.269 C332.039,12.711 329.254,11.933 325.481,11.933 L319.602,11.933 L319.602,30.601 Z M319.602,40.668 L319.602,63.957 L305,63.957 L305,1 L325.481,1 C330.028,1 333.91,1.472 337.125,2.406 C340.336,3.343 342.961,4.644 344.988,6.316 C347.02,7.988 348.492,9.961 349.418,12.234 C350.34,14.511 350.801,16.988 350.801,19.668 C350.801,21.714 350.528,23.64 349.977,25.457 C349.434,27.269 348.617,28.953 347.539,30.492 C346.457,32.031 345.133,33.406 343.563,34.617 C341.992,35.828 340.184,36.82 338.137,37.597 C339.117,38.089 340.035,38.695 340.883,39.414 C341.731,40.132 342.473,41.011 343.113,42.05 L356.504,63.957 L343.285,63.957 C340.832,63.957 339.078,63.035 338.012,61.195 L327.555,42.914 C327.094,42.105 326.551,41.535 325.93,41.183 C325.317,40.839 324.442,40.668 323.32,40.668 L319.602,40.668 Z" id="Fill-23" fill="#FD0002"></path>
                <path d="M126.672,1 L126.672,26.242 L110.629,26.242 C109.176,26.242 108,27.371 108,28.761 L108,36.199 C108,37.589 109.176,38.714 110.629,38.714 L126.672,38.714 L126.672,63.957 L141.278,63.957 L141.278,1 L126.672,1 Z" id="Fill-24" fill="#FFFFFF" stroke="gray"></path>
                <path d="M400.685396,30.8210944 C399.666396,14.3840944 381.514396,0.15709441 374.037396,0.00109440958 C366.557396,-0.15890559 352.580396,17.2510944 352.014396,34.9390944 C351.482396,51.5250944 365.834396,62.8960944 372.010396,64.3410944 C372.182396,56.5360944 372.814396,27.8100944 372.920396,24.4580944 C373.142396,17.6100944 373.486396,6.96209441 374.642396,6.60709441 C375.307396,6.40309441 376.213396,12.3920944 376.103396,15.9310944 C376.080396,16.6070944 376.072396,18.7940944 376.072396,21.8960944 C377.322396,20.6420944 378.631396,19.3370944 379.424396,18.5680944 C381.600396,16.4580944 382.564396,16.7080944 381.518396,18.5910944 C380.877396,19.7470944 378.111396,23.5990944 376.080396,26.3880944 C376.088396,32.0170944 376.115396,39.0990944 376.142396,45.6960944 C379.014396,42.3840944 382.529396,38.4070944 384.373396,36.6420944 C388.248396,32.9390944 388.658396,33.4070944 386.830396,37.2940944 C385.709396,39.6730944 380.217396,46.0280944 376.162396,51.0400944 C376.185396,56.8960944 376.209396,61.8180944 376.213396,64.1690944 C387.084396,61.8100944 401.685396,46.9580944 400.685396,30.8210944" id="Fill-25" fill="#DD7139"></path>
            </g>
        </g>
    </g>
</svg>
